<svg xmlns="http://www.w3.org/2000/svg" width="256" height="256" viewBox="0 0 100 100"><rect width="100" height="100" rx="20" fill="#12413b"></rect><path fill="#fff" d="M70.70 72.98Q65.12 72.98 62.44 69.82L62.44 69.82Q60.11 67.09 60.11 62.83L60.11 62.83Q60.11 60.81 60.61 58.13Q61.12 55.45 62.13 51.23L62.13 51.23Q63.14 46.92 63.65 44.35Q64.15 41.78 64.15 39.89L64.15 39.89Q64.15 35.28 60.90 35.28L60.90 35.28Q58.61 35.28 56.68 37.70L56.68 37.70Q55.05 39.76 53.87 43.58L53.87 43.58L47.76 72.46L34.79 72.46L41.39 41.39Q41.65 40.33 41.65 39.15L41.65 39.15Q41.65 37.34 41.08 36.38L41.08 36.38Q40.33 35.19 38.93 35.19L38.93 35.19Q36.38 35.19 34.49 37.65L34.49 37.65Q32.82 39.76 31.63 43.58L31.63 43.58L25.52 72.46L12.56 72.46L22.09 27.46L35.06 27.46L34.09 32.11Q36.73 29.17 39.85 27.94L39.85 27.94Q42.31 27.02 45.08 27.02L45.08 27.02Q48.86 27.02 51.10 28.77L51.10 28.77Q53.60 30.75 54.31 34.75L54.31 34.75Q57.21 30.27 60.99 28.42L60.99 28.42Q63.67 27.10 66.83 27.10L66.83 27.10Q71.36 27.10 73.99 29.48L73.99 29.48Q76.81 32.07 76.81 37.26L76.81 37.26Q76.81 40.20 75.71 45.39L75.71 45.39Q75.27 47.54 74.65 49.74L74.65 49.74Q73.55 53.96 72.85 57.51L72.85 57.51Q72.50 59.36 72.50 60.50L72.50 60.50Q72.50 62.30 73.31 63.29Q74.13 64.28 76.10 64.28L76.10 64.28Q78.78 64.28 80.63 62.08L80.63 62.08Q82.04 60.42 83.66 56.33L83.66 56.33L87.44 56.33Q84.10 66.22 79.00 70.17L79.00 70.17Q75.40 72.98 70.70 72.98L70.70 72.98Z"></path></svg>